name ./resultDataOpenSim/trcMotMarkerGrf/sub09/grf-02-06.mot
datacolumns 19
datarows 20
range 1.45200000 1.52800000
endheader

                time	     ground_force_vx	     ground_force_vy	     ground_force_vz	     ground_force_px	     ground_force_py	     ground_force_pz	   l_ground_force_vx	   l_ground_force_vy	   l_ground_force_vz	   l_ground_force_px	   l_ground_force_py	   l_ground_force_pz	     ground_torque_x	     ground_torque_y	     ground_torque_z	   l_ground_torque_x	   l_ground_torque_y	   l_ground_torque_z	
          1.45200000	        -11.52907592	        411.43161167	         -8.41435079	          0.98783581	          0.00000000	          0.14147858	          0.00000000	          0.00000000	          0.00000000	          0.00000000	          0.00000000	          0.00000000	          0.00000000	          2.36407702	          0.00000000	          0.00000000	          0.00000000	          0.00000000	
          1.45600000	        -13.20905772	        410.48656716	         -7.11562292	          0.98858284	          0.00000000	          0.14144508	          0.00000000	          0.00000000	          0.00000000	          0.00000000	          0.00000000	          0.00000000	          0.00000000	          2.74222375	          0.00000000	          0.00000000	          0.00000000	          0.00000000	
          1.46000000	        -15.68826384	        410.20660250	         -7.34557383	          0.98943477	          0.00000000	          0.14145419	          0.00000000	          0.00000000	          0.00000000	          0.00000000	          0.00000000	          0.00000000	          0.00000000	          3.11769139	          0.00000000	          0.00000000	          0.00000000	          0.00000000	
          1.46400000	        -17.74256821	        410.51105254	         -9.10533211	          0.99018421	          0.00000000	          0.14153677	          0.00000000	          0.00000000	          0.00000000	          0.00000000	          0.00000000	          0.00000000	          0.00000000	          3.41760282	          0.00000000	          0.00000000	          0.00000000	          0.00000000	
          1.46800000	        -18.24782210	        411.35862784	        -12.11798546	          0.99062803	          0.00000000	          0.14169597	          0.00000000	          0.00000000	          0.00000000	          0.00000000	          0.00000000	          0.00000000	          0.00000000	          3.58757362	          0.00000000	          0.00000000	          0.00000000	          0.00000000	
          1.47200000	        -16.49087543	        412.71340012	        -15.87724654	          0.99064839	          0.00000000	          0.14191499	          0.00000000	          0.00000000	          0.00000000	          0.00000000	          0.00000000	          0.00000000	          0.00000000	          3.60841572	          0.00000000	          0.00000000	          0.00000000	          0.00000000	
          1.47600000	        -12.35233833	        414.53121603	        -19.74610491	          0.99024819	          0.00000000	          0.14217638	          0.00000000	          0.00000000	          0.00000000	          0.00000000	          0.00000000	          0.00000000	          0.00000000	          3.50145654	          0.00000000	          0.00000000	          0.00000000	          0.00000000	
          1.48000000	         -6.31462179	        416.80206799	        -23.09118059	          0.98953047	          0.00000000	          0.14245347	          0.00000000	          0.00000000	          0.00000000	          0.00000000	          0.00000000	          0.00000000	          0.00000000	          3.32160024	          0.00000000	          0.00000000	          0.00000000	          0.00000000	
          1.48400000	          0.68350666	        419.58347541	        -25.40916525	          0.98865658	          0.00000000	          0.14270273	          0.00000000	          0.00000000	          0.00000000	          0.00000000	          0.00000000	          0.00000000	          0.00000000	          3.14196591	          0.00000000	          0.00000000	          0.00000000	          0.00000000	
          1.48800000	          7.50511158	        422.97585613	        -26.40502268	          0.98782706	          0.00000000	          0.14287312	          0.00000000	          0.00000000	          0.00000000	          0.00000000	          0.00000000	          0.00000000	          0.00000000	          3.03591182	          0.00000000	          0.00000000	          0.00000000	          0.00000000	
          1.49200000	         13.12523578	        427.07799439	        -26.01621507	          0.98723193	          0.00000000	          0.14292506	          0.00000000	          0.00000000	          0.00000000	          0.00000000	          0.00000000	          0.00000000	          0.00000000	          3.06120277	          0.00000000	          0.00000000	          0.00000000	          0.00000000	
          1.49600000	         16.89281506	        431.95993716	        -24.39172284	          0.98697382	          0.00000000	          0.14284591	          0.00000000	          0.00000000	          0.00000000	          0.00000000	          0.00000000	          0.00000000	          0.00000000	          3.24869073	          0.00000000	          0.00000000	          0.00000000	          0.00000000	
          1.50000000	         18.66522867	        437.65159651	        -21.84120719	          0.98704995	          0.00000000	          0.14263673	          0.00000000	          0.00000000	          0.00000000	          0.00000000	          0.00000000	          0.00000000	          0.00000000	          3.59617871	          0.00000000	          0.00000000	          0.00000000	          0.00000000	
          1.50400000	         18.80855237	        444.14969385	        -18.78298153	          0.98743290	          0.00000000	          0.14231494	          0.00000000	          0.00000000	          0.00000000	          0.00000000	          0.00000000	          0.00000000	          0.00000000	          4.06795095	          0.00000000	          0.00000000	          0.00000000	          0.00000000	
          1.50800000	         18.09676799	        451.43673319	        -15.69436303	          0.98799822	          0.00000000	          0.14191703	          0.00000000	          0.00000000	          0.00000000	          0.00000000	          0.00000000	          0.00000000	          0.00000000	          4.60096208	          0.00000000	          0.00000000	          0.00000000	          0.00000000	
          1.51200000	         17.51990148	        459.48392759	        -13.03798250	          0.98857858	          0.00000000	          0.14148564	          0.00000000	          0.00000000	          0.00000000	          0.00000000	          0.00000000	          0.00000000	          0.00000000	          5.11815318	          0.00000000	          0.00000000	          0.00000000	          0.00000000	
          1.51600000	         18.01121708	        468.23951396	        -11.17583594	          0.98900638	          0.00000000	          0.14106778	          0.00000000	          0.00000000	          0.00000000	          0.00000000	          0.00000000	          0.00000000	          0.00000000	          5.54698529	          0.00000000	          0.00000000	          0.00000000	          0.00000000	
          1.52000000	         20.18100153	        477.63882841	        -10.31064165	          0.98919046	          0.00000000	          0.14070605	          0.00000000	          0.00000000	          0.00000000	          0.00000000	          0.00000000	          0.00000000	          0.00000000	          5.83827114	          0.00000000	          0.00000000	          0.00000000	          0.00000000	
          1.52400000	         24.16376867	        487.64364915	        -10.45627591	          0.98914684	          0.00000000	          0.14042371	          0.00000000	          0.00000000	          0.00000000	          0.00000000	          0.00000000	          0.00000000	          0.00000000	          5.97892648	          0.00000000	          0.00000000	          0.00000000	          0.00000000	
          1.52800000	         29.61117014	        498.26507071	        -11.43687893	          0.98894272	          0.00000000	          0.14021257	          0.00000000	          0.00000000	          0.00000000	          0.00000000	          0.00000000	          0.00000000	          0.00000000	          5.99379085	          0.00000000	          0.00000000	          0.00000000	          0.00000000	
